<svg xmlns="http://www.w3.org/2000/svg" viewBox="0 0 24 24">
  <path fill="black" fill-rule="evenodd" d="M19.592 5.509a.5.5 0 01.4.583l-1.195 6.369A2.5 2.5 0 0116.34 14.5h-8l-.326.814a.5.5 0 00.464.686H16.5a.5.5 0 010 1H8.477a1.5 1.5 0 01-1.393-2.057l.398-.994L6.085 6.5H4.5a.5.5 0 010-1h2.415l1.5 8h7.925a1.5 1.5 0 001.474-1.224l1.195-6.368a.5.5 0 01.583-.4zM9 17a1 1 0 110 2 1 1 0 010-2zm6 0a1 1 0 110 2 1 1 0 010-2zM13.002 7a.5.5 0 01.5.5V9h1.5a.5.5 0 110 1h-1.5v1.5a.5.5 0 11-1 0V10h-1.5a.5.5 0 010-1h1.5V7.5a.5.5 0 01.5-.5z" clip-rule="evenodd"/>
</svg>
