<svg xmlns="http://www.w3.org/2000/svg" viewBox="0 0 24 24">
  <path fill="black" fill-rule="evenodd" d="M11 12.917a2.5 2.5 0 100-5 2.5 2.5 0 000 5zm-3.176-.114c.181-.123.419-.088.59.048A4.15 4.15 0 0011 13.75c.977 0 1.875-.336 2.586-.9.171-.135.409-.17.59-.046A4.162 4.162 0 0116 16.25c0 .46-.373.833-.833.833H6.833A.833.833 0 016 16.25c0-1.433.723-2.697 1.824-3.447zm8.234-4.886a.5.5 0 01.5.5v1h.942a.5.5 0 010 1h-.942v1a.5.5 0 11-1 0v-1H14.5a.5.5 0 010-1h1.058v-1a.5.5 0 01.5-.5z" clip-rule="evenodd"/>
</svg>
