<svg xmlns="http://www.w3.org/2000/svg" viewBox="0 0 24 24">
  <path fill="black" fill-rule="evenodd" d="M9.45 3.072A10.25 10.25 0 003.726 6.95a.482.482 0 00.132.686c.23.152.54.087.704-.135A9.25 9.25 0 019.65 4.053a.522.522 0 00.386-.603.482.482 0 00-.588-.378zm5.547.126a.482.482 0 00-.604.35.522.522 0 00.358.62 9.25 9.25 0 014.928 3.674c.154.23.46.308.697.167a.482.482 0 00.163-.68 10.25 10.25 0 00-5.542-4.131zM12 21a8 8 0 100-16 8 8 0 000 16zm0-1a7 7 0 100-14 7 7 0 000 14zm0-13.004a.5.5 0 01.5.5v5h5a.5.5 0 010 1H12a.5.5 0 01-.5-.5v-5.5a.5.5 0 01.5-.5z" clip-rule="evenodd"/>
</svg>
