<svg xmlns="http://www.w3.org/2000/svg" viewBox="0 0 24 24">
  <path fill="black" fill-rule="evenodd" d="M4 4.5a.5.5 0 011 0v14a.5.5 0 00.5.5h14a.5.5 0 010 1h-15a.5.5 0 01-.5-.5v-15zM7.5 12a.5.5 0 00-.5.5v5a.5.5 0 001 0v-5a.5.5 0 00-.5-.5zm2-3a.5.5 0 00-.5.5v8a.5.5 0 001 0v-8a.5.5 0 00-.5-.5zm2 3a.5.5 0 00-.5.5v5a.5.5 0 001 0v-5a.5.5 0 00-.5-.5zm2-6a.5.5 0 00-.5.5v11a.5.5 0 001 0v-11a.5.5 0 00-.5-.5zm3.5-.5a.5.5 0 011 0v12a.5.5 0 01-1 0v-12zM15.5 15a.5.5 0 00-.5.5v2a.5.5 0 001 0v-2a.5.5 0 00-.5-.5z" clip-rule="evenodd"/>
</svg>
