<svg xmlns="http://www.w3.org/2000/svg" viewBox="0 0 24 24">
  <path fill="black" fill-rule="evenodd" d="M9.5 4.919a.5.5 0 01.5-.5h4a.5.5 0 01.5.5v.662h4.134a.5.5 0 110 1H17.5l-.929 12.077a1 1 0 01-.997.923H8.426a1 1 0 01-.997-.923L6.5 6.581H5.366a.5.5 0 110-1H9.5V4.92zm.5 0h4v.662h-4V4.92zM9.045 7.58a.498.498 0 00-.496.543l.91 10.004a.498.498 0 00.992-.09L9.54 8.034a.498.498 0 00-.496-.453zm2.455.5a.5.5 0 011 0v10a.5.5 0 01-1 0v-10zm3.455-.5a.498.498 0 00-.496.453l-.91 10.004a.498.498 0 10.992.09l.91-10.004a.498.498 0 00-.496-.543z" clip-rule="evenodd"/>
</svg>
