<svg xmlns="http://www.w3.org/2000/svg" viewBox="0 0 24 24">
  <path fill="black" d="M13.808 13.932c0-.323-.14-.595-.42-.816-.274-.221-.74-.421-1.398-.6-.915-.228-1.583-.525-2.004-.89a1.787 1.787 0 01-.625-1.4c0-.575.204-1.047.612-1.415.413-.369.978-.588 1.695-.658V7h.96v1.158c.722.08 1.283.328 1.682.742.404.414.606.98.606 1.7H13.73c0-.495-.144-.888-.431-1.179-.288-.291-.677-.437-1.167-.437-.511 0-.902.109-1.173.327-.27.214-.406.514-.406.9 0 .357.142.643.425.857.288.21.759.404 1.412.58.657.171 1.168.363 1.534.573.37.207.64.45.812.726.176.278.264.602.264.974 0 .593-.22 1.07-.657 1.432-.434.361-1.044.575-1.83.642V17h-.954v-1.005c-.8-.06-1.427-.291-1.882-.695-.451-.407-.677-.958-.677-1.653h1.192c0 .488.157.864.47 1.127.314.263.76.394 1.335.394.563 0 1.005-.11 1.327-.331a1.04 1.04 0 00.484-.905z"/>
</svg>
