<svg xmlns="http://www.w3.org/2000/svg" viewBox="0 0 24 24">
  <path fill="black" fill-rule="evenodd" d="M12 20a8 8 0 100-16 8 8 0 000 16zm2.085-4.252c.514-.505.819-1.221.915-2.148h-1.033c-.1.722-.303 1.23-.61 1.522-.303.29-.74.434-1.311.434-.636 0-1.13-.281-1.483-.843A3.022 3.022 0 0110.24 14H12v-1h-1.945a6.797 6.797 0 01-.022-.555V12H12v-1h-1.943c.061-.722.239-1.299.533-1.731.374-.546.89-.818 1.546-.818.536 0 .951.156 1.248.469.3.313.494.818.583 1.516H15c-.082-.919-.373-1.637-.872-2.154-.5-.521-1.164-.782-1.992-.782-.624 0-1.173.166-1.648.5-.475.328-.842.801-1.103 1.42-.195.47-.316.996-.363 1.58H8v1h1v.41c0 .203.007.4.022.59H8v1h1.184c.138.532.353.995.646 1.387.556.742 1.295 1.113 2.216 1.113.849 0 1.529-.25 2.039-.752z" clip-rule="evenodd"/>
</svg>
