<svg xmlns="http://www.w3.org/2000/svg" viewBox="0 0 24 24">
  <path fill="black" fill-rule="evenodd" d="M4 8a1 1 0 011-1h3.586a1 1 0 01.707.293L10 8h9a1 1 0 011 1v7a1 1 0 01-1 1H5a1 1 0 01-1-1V8zm12.728 2.632c0-.073-.063-.132-.14-.132h-1.121c-.078 0-.14.06-.14.132v.175h-1.16a.142.142 0 00-.12.066c-.055.088.013.198.12.198h.319l.26 3.185a.274.274 0 00.28.244h2.003a.274.274 0 00.28-.244l.26-3.185h.318c.108 0 .175-.11.121-.198a.142.142 0 00-.121-.066h-1.159v-.175zm-1.261 0h1.12v.175h-1.12v-.175zm1.527.846c.008-.077-.056-.144-.139-.144a.137.137 0 00-.139.12l-.254 2.639c-.008.077.056.143.139.143a.137.137 0 00.139-.12l.255-2.638zm-.827-.012a.136.136 0 00-.14-.132c-.077 0-.14.06-.14.132v2.638c0 .073.063.132.14.132.078 0 .14-.059.14-.132v-2.638zm-.829-.012a.137.137 0 00-.139-.12c-.082 0-.146.067-.139.144l.255 2.639c.007.067.067.12.139.12.082 0 .146-.067.139-.144l-.255-2.64z" clip-rule="evenodd"/>
</svg>
