<svg xmlns="http://www.w3.org/2000/svg" viewBox="0 0 24 24">
  <path fill="black" fill-rule="evenodd" d="M10.5 5v1.577a6.5 6.5 0 107.48 6.922.471.471 0 00-.48-.499.538.538 0 00-.523.5A5.5 5.5 0 1110.5 7.591V9l3-2L12 6l-1.5-1zm3.17 10.366c.22-.422.33-1.068.33-1.937v-.962c-.006-.84-.12-1.46-.34-1.861-.22-.404-.563-.606-1.03-.606-.47 0-.816.209-1.036.626-.22.417-.33 1.055-.33 1.913v.99c.007.821.123 1.439.345 1.853.222.412.565.618 1.027.618.469 0 .813-.211 1.034-.634zm-.417-4.323c.13.286.196.743.196 1.371v1.216c-.006.61-.075 1.056-.208 1.34-.131.283-.333.424-.605.424-.276 0-.482-.15-.62-.449-.134-.302-.202-.768-.202-1.4v-1.187c.004-.593.07-1.033.2-1.32.129-.285.334-.428.616-.428.284 0 .492.144.623.433zM10.665 16h-.554v-4.945L9 11.605v-.675l1.578-.798h.087V16z" clip-rule="evenodd"/>
</svg>
