<svg xmlns="http://www.w3.org/2000/svg" viewBox="0 0 24 24">
  <path fill="black" fill-rule="evenodd" d="M10 5.5a.5.5 0 01.5-.5h3a.5.5 0 01.5.5v3.293a.5.5 0 01-.146.353l-1.5 1.5a.5.5 0 01-.708 0l-1.5-1.5A.5.5 0 0110 8.793V5.5zm4 13a.5.5 0 01-.5.5h-3a.5.5 0 01-.5-.5v-3.292a.5.5 0 01.146-.354l1.5-1.5a.5.5 0 01.707 0l1.5 1.499a.5.5 0 01.147.354v3.292zm4.5-8.5a.5.5 0 01.5.5v3a.5.5 0 01-.5.5h-3.292a.5.5 0 01-.354-.146l-1.5-1.5a.5.5 0 010-.707l1.5-1.5a.5.5 0 01.354-.146h3.293zm-13 0a.5.5 0 00-.5.5v3a.5.5 0 00.5.5h3.293a.5.5 0 00.353-.146l1.5-1.5a.5.5 0 000-.708l-1.5-1.5A.5.5 0 008.793 10H5.5z" clip-rule="evenodd"/>
</svg>
