<svg xmlns="http://www.w3.org/2000/svg" viewBox="0 0 24 24">
  <path fill="black" fill-rule="evenodd" d="M12 20a8 8 0 100-16 8 8 0 000 16zm-.793-6.584c-.03.278.2.508.48.508h.132c.276 0 .493-.226.536-.498.061-.388.2-.7.414-.939l.672-.666c.665-.698.998-1.407.998-2.127 0-.727-.217-1.298-.653-1.714-.432-.419-1.036-.628-1.813-.628-.748 0-1.356.205-1.825.616-.34.3-.559.668-.654 1.107-.059.272.173.502.452.502h.134c.276 0 .485-.233.59-.489a1.07 1.07 0 01.292-.405c.255-.222.592-.333 1.011-.333.432 0 .76.124.987.37.226.243.339.58.339 1.011 0 .448-.173.868-.518 1.258l-.808.832c-.316.346-.526.66-.629.944-.064.177-.11.394-.137.651zm.088 2a.665.665 0 00-.166.462c0 .185.055.34.166.462.115.12.284.18.506.18.222 0 .39-.06.505-.18a.651.651 0 00.173-.462.651.651 0 00-.173-.462c-.115-.128-.283-.191-.505-.191-.222 0-.39.063-.506.19z" clip-rule="evenodd"/>
</svg>
