<svg width="24" height="24" viewBox="0 0 24 24" fill="none" xmlns="http://www.w3.org/2000/svg">
<path fill-rule="evenodd" clip-rule="evenodd" d="M16 5.5H8C6.61929 5.5 5.5 6.61929 5.5 8V16C5.5 17.3807 6.61929 18.5 8 18.5H16C17.3807 18.5 18.5 17.3807 18.5 16V8C18.5 6.61929 17.3807 5.5 16 5.5ZM8 4C5.79086 4 4 5.79086 4 8V16C4 18.2091 5.79086 20 8 20H16C18.2091 20 20 18.2091 20 16V8C20 5.79086 18.2091 4 16 4H8ZM12 14.5C13.3807 14.5 14.5 13.3807 14.5 12C14.5 10.6193 13.3807 9.5 12 9.5C10.6193 9.5 9.5 10.6193 9.5 12C9.5 13.3807 10.6193 14.5 12 14.5ZM12 16C14.2091 16 16 14.2091 16 12C16 9.79086 14.2091 8 12 8C9.79086 8 8 9.79086 8 12C8 14.2091 9.79086 16 12 16ZM16.518 8.48201C17.0703 8.48201 17.518 8.0343 17.518 7.48201C17.518 6.92973 17.0703 6.48201 16.518 6.48201C15.9657 6.48201 15.518 6.92973 15.518 7.48201C15.518 8.0343 15.9657 8.48201 16.518 8.48201Z" fill="black"/>
</svg>
