<svg xmlns="http://www.w3.org/2000/svg" viewBox="0 0 24 24">
  <path fill="black" fill-rule="evenodd" d="M4.5 4a.5.5 0 00-.5.5v15a.5.5 0 00.5.5h15a.5.5 0 000-1h-14a.5.5 0 01-.5-.5v-14a.5.5 0 00-.5-.5zm14.707 4.545a.5.5 0 01.248.662l-2.292 5.044a1 1 0 11-1.316-.008l-.921-2.147-2.052 3.418a1 1 0 11-1.84.226l-.775-.774a1 1 0 01-.518 0l-2.387 2.388a.5.5 0 01-.708-.708l2.388-2.387a1.001 1.001 0 111.932 0l.775.775A1 1 0 0112 15h.017l2.48-4.135a1 1 0 11.992.007l1.024 2.39 2.032-4.469a.5.5 0 01.662-.248z" clip-rule="evenodd"/>
</svg>
