<svg xmlns="http://www.w3.org/2000/svg" viewBox="0 0 24 24">
  <path fill="black" fill-rule="evenodd" d="M4 9.875a.5.5 0 01.5-.5h4.312a.5.5 0 00.33-.124l4.029-3.525a.5.5 0 01.829.376v11.796a.5.5 0 01-.83.376L9.142 14.75a.5.5 0 00-.329-.124H4.5a.5.5 0 01-.5-.5v-4.25zm14.596-2.471a6.5 6.5 0 01-1.346 10.225.5.5 0 11-.5-.866A5.498 5.498 0 0019.5 12a5.5 5.5 0 00-2.75-4.763.5.5 0 01.5-.866 6.5 6.5 0 011.346 1.033zm-4.029 8.31a.5.5 0 01.183-.683A3.497 3.497 0 0016.5 12a3.5 3.5 0 00-1.75-3.031.5.5 0 01.5-.866 4.5 4.5 0 010 7.794.5.5 0 01-.683-.183z" clip-rule="evenodd"/>
</svg>
